# xmcd
#
# Track frame offsets:
#	150
#	8946
#	18077
#	30172
#	39921
#	48982
#	59420
#	68146
#	80142
#	90645
#	104923
#	114758
#	128973
#	137797
#	150968
#	163442
#	176662
#	185261
#	197571
#	207934
#	215411
#	235315
#
# Disc length: 3258 seconds
#
# Revision: 2
# Processed by: cddbd v1.4PL0 Copyright (c) Steve Scherf et al.
# Submitted via: MusicWizard 6.0.0
#
DISCID=290cb816
DTITLE=Sleepy LaBeef - Rockabilly Heavyweight
DYEAR=2002
DGENRE=Rockabilly
TTITLE0=Sick and tired
TTITLE1=Mind your own business
TTITLE2=Lonesome for a letter
TTITLE3=Detour
TTITLE4=Shame shame shame
TTITLE5=Smoking cigarettes and drinking coffee blues
TTITLE6=Cut across Shorty
TTITLE7=I'm feeling sorry
TTITLE8=Honky tonk man
TTITLE9=My sweet love ain't around
TTITLE10=If you don't love me somebody else will
TTITLE11=Milk cow blues
TTITLE12=Ride ride ride
TTITLE13=Are you teasing me
TTITLE14=LaBoeuf's cajun boogie
TTITLE15=Go ahead on baby
TTITLE16=Long Tall Texan
TTITLE17=Let's Turn Back The Years
TTITLE18=Blackland Farmer (SUN International LP 130)
TTITLE19=I'm Ragged But I'm Right (Not Originally Issued)
TTITLE20=Stormy Mondy Blues (Not Originally Issued)
TTITLE21=There Ain't Much Left After Taxes (SUN International 1134)
EXTD=Original SUN Recordings
EXTT0=
EXTT1=
EXTT2=
EXTT3=
EXTT4=
EXTT5=
EXTT6=
EXTT7=
EXTT8=
EXTT9=
EXTT10=
EXTT11=
EXTT12=
EXTT13=
EXTT14=
EXTT15=
EXTT16=
EXTT17=
EXTT18=
EXTT19=
EXTT20=
EXTT21=
PLAYORDER=
